<svg xmlns="http://www.w3.org/2000/svg" viewBox="0 0 1000 1000">
  <defs>
    <filter id="blur" x="-20%" y="-20%" width="140%" height="140%">
      <feGaussianBlur stdDeviation="6" />
    </filter>
  </defs>
  <g transform="translate(500 500) scale(1.328904 -1.328904) translate(-293.500000 -287.000000)">
    <path d="M475 566Q525 566 587 588V581Q534 567 503 517Q487 491 475 459Q462 426 411 289Q352 127 287 56Q220 -14 129 -14Q66 -14 33.0 13.5Q0 41 0 92Q0 131 16 156Q31 183 53 183Q73 183 73 163Q72 146 55 139Q49 135 38 131Q17 125 17 90Q17 49 45.5 24.0Q74 -1 122 -1Q192 -1 233 46Q275 93 330 234Q389 382 392 390Q410 430 425 458Q458 515 515 556Q458 539 418 539Q390 539 343 551Q291 562 283 562Q254 562 234.0 538.0Q214 514 214 478Q214 455 221 441L209 434Q199 450 199 478Q199 529 234 558Q270 588 324 588Q342 588 384 577Q420 566 475 566Z" fill="none" stroke="#000" stroke-width="4" vector-effect="non-scaling-stroke" />
    <path d="M475 566Q525 566 587 588V581Q534 567 503 517Q487 491 475 459Q462 426 411 289Q352 127 287 56Q220 -14 129 -14Q66 -14 33.0 13.5Q0 41 0 92Q0 131 16 156Q31 183 53 183Q73 183 73 163Q72 146 55 139Q49 135 38 131Q17 125 17 90Q17 49 45.5 24.0Q74 -1 122 -1Q192 -1 233 46Q275 93 330 234Q389 382 392 390Q410 430 425 458Q458 515 515 556Q458 539 418 539Q390 539 343 551Q291 562 283 562Q254 562 234.0 538.0Q214 514 214 478Q214 455 221 441L209 434Q199 450 199 478Q199 529 234 558Q270 588 324 588Q342 588 384 577Q420 566 475 566Z" fill="#000" fill-opacity="0.2" filter="url(#blur)" />
  </g>
</svg>
