<svg xmlns="http://www.w3.org/2000/svg" viewBox="0 0 1000 1000">
  <defs>
    <filter id="blur" x="-20%" y="-20%" width="140%" height="140%">
      <feGaussianBlur stdDeviation="6" />
    </filter>
  </defs>
  <g transform="translate(500 500) scale(0.427122 -0.427122) translate(-1282.500000 -514.500000)">
    <path d="M2645 -345Q2642 -347 2618.0 -359.0Q2594 -371 2555.0 -385.0Q2516 -399 2466.0 -410.5Q2416 -422 2362 -422Q2274 -422 2204.0 -391.0Q2134 -360 2085.5 -303.5Q2037 -247 2011.0 -167.5Q1985 -88 1985 9Q1985 102 2008.0 213.5Q2031 325 2068.0 443.0Q2105 561 2151.5 679.0Q2198 797 2245.5 903.5Q2293 1010 2336.0 1098.5Q2379 1187 2410 1246Q2354 1182 2282.0 1098.5Q2210 1015 2128.5 915.5Q2047 816 1959.0 703.5Q1871 591 1781.5 469.5Q1692 348 1604.0 220.5Q1516 93 1436 -36L1388 -20Q1403 143 1437.5 303.5Q1472 464 1515.5 612.5Q1559 761 1607.5 891.5Q1656 1022 1700 1125Q1633 1033 1566.5 925.5Q1500 818 1432.0 704.5Q1364 591 1292.0 476.5Q1220 362 1142.0 256.5Q1064 151 977.5 59.5Q891 -32 793.5 -99.5Q696 -167 585.5 -206.0Q475 -245 349 -245Q252 -245 173.0 -216.0Q94 -187 37.5 -136.5Q-19 -86 -49.5 -18.0Q-80 50 -80 129Q-80 206 -55.5 268.5Q-31 331 10.0 379.5Q51 428 105.5 463.5Q160 499 220.0 522.0Q280 545 341.5 556.0Q403 567 459 567Q575 567 681.0 539.5Q787 512 885 442L850 403Q849 404 824.0 421.5Q799 439 752.0 460.0Q705 481 635.5 498.0Q566 515 477 515Q391 515 310.5 492.0Q230 469 168.5 422.5Q107 376 70.0 305.5Q33 235 33 140Q33 72 59.5 14.0Q86 -44 133.0 -86.5Q180 -129 246.0 -153.0Q312 -177 392 -177Q512 -177 622.0 -126.0Q732 -75 834.0 12.0Q936 99 1030.5 215.0Q1125 331 1212.5 460.0Q1300 589 1382.0 725.0Q1464 861 1541.0 987.5Q1618 1114 1691.0 1224.5Q1764 1335 1834 1415L1879 1388Q1835 1254 1803.0 1152.5Q1771 1051 1747.5 974.0Q1724 897 1707.5 841.0Q1691 785 1679.0 741.0Q1667 697 1657.5 661.5Q1648 626 1638.5 591.0Q1629 556 1617.0 517.0Q1605 478 1588.0 426.5Q1571 375 1548.0 307.5Q1525 240 1492 148Q1576 275 1664.5 398.0Q1753 521 1841.0 636.0Q1929 751 2013.5 856.0Q2098 961 2173.5 1051.0Q2249 1141 2312.5 1214.5Q2376 1288 2423.0 1340.0Q2470 1392 2496.5 1421.0Q2523 1450 2524 1451L2566 1420Q2507 1274 2449.0 1127.5Q2391 981 2337.5 842.0Q2284 703 2238.0 574.0Q2192 445 2158.0 332.5Q2124 220 2104.5 127.5Q2085 35 2085 -31Q2085 -109 2103.5 -172.0Q2122 -235 2157.0 -279.0Q2192 -323 2243.5 -346.5Q2295 -370 2360 -370Q2409 -370 2455.5 -359.0Q2502 -348 2538.0 -335.0Q2574 -322 2596.0 -311.0Q2618 -300 2619 -300Z" fill="none" stroke="#000" stroke-width="4" vector-effect="non-scaling-stroke" />
    <path d="M2645 -345Q2642 -347 2618.0 -359.0Q2594 -371 2555.0 -385.0Q2516 -399 2466.0 -410.5Q2416 -422 2362 -422Q2274 -422 2204.0 -391.0Q2134 -360 2085.5 -303.5Q2037 -247 2011.0 -167.5Q1985 -88 1985 9Q1985 102 2008.0 213.5Q2031 325 2068.0 443.0Q2105 561 2151.5 679.0Q2198 797 2245.5 903.5Q2293 1010 2336.0 1098.5Q2379 1187 2410 1246Q2354 1182 2282.0 1098.5Q2210 1015 2128.5 915.5Q2047 816 1959.0 703.5Q1871 591 1781.5 469.5Q1692 348 1604.0 220.5Q1516 93 1436 -36L1388 -20Q1403 143 1437.5 303.5Q1472 464 1515.5 612.5Q1559 761 1607.5 891.5Q1656 1022 1700 1125Q1633 1033 1566.5 925.5Q1500 818 1432.0 704.5Q1364 591 1292.0 476.5Q1220 362 1142.0 256.5Q1064 151 977.5 59.5Q891 -32 793.5 -99.5Q696 -167 585.5 -206.0Q475 -245 349 -245Q252 -245 173.0 -216.0Q94 -187 37.5 -136.5Q-19 -86 -49.5 -18.0Q-80 50 -80 129Q-80 206 -55.5 268.5Q-31 331 10.0 379.5Q51 428 105.5 463.5Q160 499 220.0 522.0Q280 545 341.5 556.0Q403 567 459 567Q575 567 681.0 539.5Q787 512 885 442L850 403Q849 404 824.0 421.5Q799 439 752.0 460.0Q705 481 635.5 498.0Q566 515 477 515Q391 515 310.5 492.0Q230 469 168.5 422.5Q107 376 70.0 305.5Q33 235 33 140Q33 72 59.5 14.0Q86 -44 133.0 -86.5Q180 -129 246.0 -153.0Q312 -177 392 -177Q512 -177 622.0 -126.0Q732 -75 834.0 12.0Q936 99 1030.5 215.0Q1125 331 1212.5 460.0Q1300 589 1382.0 725.0Q1464 861 1541.0 987.5Q1618 1114 1691.0 1224.5Q1764 1335 1834 1415L1879 1388Q1835 1254 1803.0 1152.5Q1771 1051 1747.5 974.0Q1724 897 1707.5 841.0Q1691 785 1679.0 741.0Q1667 697 1657.5 661.5Q1648 626 1638.5 591.0Q1629 556 1617.0 517.0Q1605 478 1588.0 426.5Q1571 375 1548.0 307.5Q1525 240 1492 148Q1576 275 1664.5 398.0Q1753 521 1841.0 636.0Q1929 751 2013.5 856.0Q2098 961 2173.5 1051.0Q2249 1141 2312.5 1214.5Q2376 1288 2423.0 1340.0Q2470 1392 2496.5 1421.0Q2523 1450 2524 1451L2566 1420Q2507 1274 2449.0 1127.5Q2391 981 2337.5 842.0Q2284 703 2238.0 574.0Q2192 445 2158.0 332.5Q2124 220 2104.5 127.5Q2085 35 2085 -31Q2085 -109 2103.5 -172.0Q2122 -235 2157.0 -279.0Q2192 -323 2243.5 -346.5Q2295 -370 2360 -370Q2409 -370 2455.5 -359.0Q2502 -348 2538.0 -335.0Q2574 -322 2596.0 -311.0Q2618 -300 2619 -300Z" fill="#000000" fill-opacity="1" />
  </g>
</svg>
